<?xml version="1.0" standalone="no"?>
<!DOCTYPE svg PUBLIC "-//W3C//DTD SVG 20010904//EN"
 "http://www.w3.org/TR/2001/REC-SVG-20010904/DTD/svg10.dtd">
<svg version="1.0" xmlns="http://www.w3.org/2000/svg"
 width="1474.000000pt" height="1474.000000pt" viewBox="0 0 1474.000000 1474.000000"
 preserveAspectRatio="xMidYMid meet">
<metadata>
Created by potrace 1.14, written by Peter Selinger 2001-2017
</metadata>
<g transform="translate(0.000000,1474.000000) scale(0.100000,-0.100000)"
fill="#000000" stroke="none">
<path d="M7078 14735 c-2 -1 -64 -6 -138 -9 -74 -4 -153 -9 -175 -11 -22 -2
-69 -6 -105 -9 -36 -3 -83 -8 -105 -11 -22 -2 -78 -10 -125 -15 -47 -6 -101
-14 -120 -16 -19 -3 -46 -7 -60 -9 -47 -6 -115 -17 -135 -21 -11 -3 -35 -7
-54 -10 -42 -7 -47 -8 -206 -40 -71 -14 -164 -35 -205 -45 -249 -65 -323 -86
-485 -136 -553 -172 -1044 -392 -1585 -712 -376 -222 -785 -524 -1145 -845
-192 -171 -575 -568 -720 -747 -220 -271 -327 -413 -467 -622 -492 -736 -839
-1522 -1043 -2360 -32 -133 -86 -393 -98 -472 -3 -16 -13 -77 -22 -135 -10
-58 -19 -114 -20 -125 -1 -11 -5 -47 -10 -80 -4 -33 -9 -69 -10 -80 -3 -38
-16 -160 -20 -190 -27 -210 -27 -1017 0 -1284 2 -20 7 -67 10 -106 3 -38 8
-83 10 -100 3 -16 7 -52 10 -80 16 -133 25 -196 30 -215 2 -8 7 -35 10 -60 3
-25 8 -52 10 -60 2 -8 7 -33 10 -56 14 -102 75 -386 115 -539 45 -170 45 -170
75 -270 64 -216 195 -587 255 -720 10 -22 30 -69 45 -105 109 -263 333 -691
506 -966 55 -88 231 -353 251 -379 5 -5 54 -71 109 -145 215 -287 414 -516
674 -775 314 -313 518 -491 825 -719 58 -43 112 -83 121 -89 128 -97 650 -427
675 -427 2 0 23 -12 46 -26 62 -39 480 -247 593 -294 55 -24 118 -50 140 -60
185 -81 615 -230 855 -294 14 -4 48 -13 75 -21 131 -35 562 -130 644 -140 14
-2 40 -6 56 -9 17 -3 50 -8 75 -11 25 -4 59 -9 75 -11 67 -10 83 -12 145 -19
36 -3 72 -8 80 -10 8 -2 48 -7 87 -10 74 -7 92 -8 288 -22 221 -15 893 -8
1030 12 17 2 66 6 110 9 44 4 96 8 115 11 19 2 58 7 85 10 28 4 61 8 75 10 14
2 48 6 75 10 54 6 96 13 135 20 14 3 39 7 55 10 163 27 436 85 590 125 44 12
88 23 99 25 79 17 403 120 599 191 438 158 897 380 1332 644 111 67 283 178
295 190 3 3 28 20 55 39 59 41 358 262 365 270 3 4 48 41 100 83 52 42 104 85
115 95 11 10 56 50 100 88 451 395 889 896 1229 1403 193 289 246 379 452 762
16 30 133 276 162 340 220 492 374 970 486 1505 32 152 41 201 61 325 3 19 8
46 10 60 9 51 45 347 51 420 3 41 8 84 10 95 24 125 23 892 -1 1150 -2 22 -6
74 -10 115 -3 41 -8 93 -10 115 -9 75 -35 280 -39 300 -2 11 -6 43 -10 70 -8
60 -33 202 -47 267 -6 25 -12 57 -14 70 -7 46 -54 252 -79 348 -48 181 -60
226 -92 330 -88 283 -214 621 -310 828 -19 41 -34 76 -34 78 0 12 -205 414
-267 524 -133 235 -168 293 -306 500 -87 131 -214 309 -274 385 -5 6 -33 41
-63 80 -63 80 -61 77 -172 210 -45 55 -88 105 -94 110 -6 6 -52 55 -101 110
-192 213 -454 464 -688 660 -44 37 -91 76 -104 87 -35 30 -336 257 -412 310
-54 38 -122 85 -249 168 -81 53 -315 190 -461 270 -118 64 -535 270 -546 270
-5 0 -28 9 -50 20 -68 33 -300 124 -438 173 -353 124 -680 214 -1065 292 -40
9 -311 53 -357 59 -24 3 -62 8 -85 11 -24 3 -54 8 -68 10 -30 6 -104 13 -185
20 -33 2 -91 7 -130 10 -38 4 -97 9 -130 11 -67 6 -742 14 -747 9z"/>
</g>
</svg>
